<svg width="0" height="0" style="position:absolute"><symbol viewBox="0 0 30 30" id="icon-arrow" xmlns="http://www.w3.org/2000/svg"><path fill="currentColor" d="M11.82 9.52a1.25 1.25 0 000 1.77L15.53 15l-3.71 3.71a1.25 1.25 0 001.77 1.77l4.59-4.6a1.24 1.24 0 000-1.76l-4.59-4.6a1.25 1.25 0 00-1.77 0z"/></symbol><symbol viewBox="0 0 30 30" id="icon-burger" xmlns="http://www.w3.org/2000/svg"><path fill="currentColor" d="M6.25 9.25h17.5a1.25 1.25 0 000-2.5H6.25a1.25 1.25 0 000 2.5z"/><path d="M23.75 20.75H6.25a1.25 1.25 0 000 2.5h17.5a1.25 1.25 0 000-2.5zM23.75 13.75H6.25a1.25 1.25 0 000 2.5h17.5a1.25 1.25 0 000-2.5z"/></symbol><symbol viewBox="0 0 30 30" id="icon-check" xmlns="http://www.w3.org/2000/svg"><path fill="currentColor" d="M13.7 18.62L22 8.5a1.79 1.79 0 012.49 0 1.7 1.7 0 010 2.44L15 22.5a1.82 1.82 0 01-2.54 0l-6.92-7.39a1.81 1.81 0 010-2.58 1.89 1.89 0 012.63 0z"/></symbol><symbol viewBox="0 0 30 30" id="icon-cross" xmlns="http://www.w3.org/2000/svg"><path fill="currentColor" d="M21.62 19.78L16.84 15l4.78-4.78a1.3 1.3 0 10-1.84-1.84L15 13.16l-4.78-4.78a1.3 1.3 0 00-1.84 1.84L13.16 15l-4.78 4.78a1.3 1.3 0 101.84 1.84L15 16.84l4.78 4.78a1.3 1.3 0 101.84-1.84z"/></symbol><symbol viewBox="0 0 30 30" id="icon-eye" xmlns="http://www.w3.org/2000/svg"><ellipse fill="currentColor" cx="15" cy="15" rx="3.92" ry="3.88"/><path fill="currentColor" d="M27 14.76a.94.94 0 00-.06-.15.82.82 0 00-.1-.26C24.57 10.8 20.28 7 15 7s-9.57 3.8-11.83 7.35a.82.82 0 00-.1.26.94.94 0 00-.06.15A1 1 0 003 15a1 1 0 000 .24.94.94 0 00.06.15.82.82 0 00.1.26C5.43 19.2 9.72 23 15 23s9.57-3.8 11.83-7.35a.82.82 0 00.1-.26.94.94 0 00.06-.15A1 1 0 0027 15a1 1 0 000-.24zm-12 5.82c-4 0-7.39-2.88-9.32-5.58C7.61 12.3 11 9.42 15 9.42s7.39 2.88 9.32 5.58C22.39 17.7 19 20.58 15 20.58z"/></symbol><symbol viewBox="0 0 30 30" id="icon-facebook" xmlns="http://www.w3.org/2000/svg"><path fill="currentColor" d="M20 8.33V5h-3a4 4 0 00-3.13 1.61S13 7.42 13 9.82v2.5h-3v3.54h3V25h3.46v-9.14h3l.42-3.54h-3.42v-2.5A1.43 1.43 0 0118 8.33z" fill-rule="evenodd"/></symbol><symbol viewBox="0 0 30 30" id="icon-instagram" xmlns="http://www.w3.org/2000/svg"><path fill="currentColor" d="M21.77 8.65a1.27 1.27 0 11-1.27-1.27 1.27 1.27 0 011.27 1.27zM15 9.08A5.92 5.92 0 119.08 15 5.92 5.92 0 0115 9.08zm0 9.48A3.56 3.56 0 1118.56 15 3.56 3.56 0 0115 18.56M19.22 4h-8.44A6.77 6.77 0 004 10.78v8.44A6.77 6.77 0 0010.78 26h8.44A6.77 6.77 0 0026 19.22v-8.44A6.77 6.77 0 0019.22 4zm4.67 14.41a5.48 5.48 0 01-5.48 5.48h-6.82a5.48 5.48 0 01-5.48-5.48v-6.82a5.48 5.48 0 015.48-5.48h6.82a5.48 5.48 0 015.48 5.48z" fill-rule="evenodd"/></symbol><symbol viewBox="0 0 30 30" id="icon-linkedin" xmlns="http://www.w3.org/2000/svg"><path fill="currentColor" d="M25 25.5h-3.93v-7.45c0-4.48-5.25-4.14-5.25 0v7.45h-3.93V10.88h3.93v2.34C17.65 9.78 25 9.53 25 16.51zM7.3 9.19a2.35 2.35 0 112.29-2.34A2.32 2.32 0 017.3 9.19zm2 16.31H5.33V10.88h3.93z"/></symbol><symbol viewBox="0 0 30 30" id="icon-plus" xmlns="http://www.w3.org/2000/svg"><path fill="currentColor" d="M22.75 13.75h-6.5v-6.5a1.25 1.25 0 00-2.5 0v6.5h-6.5a1.25 1.25 0 000 2.5h6.5v6.5a1.25 1.25 0 002.5 0v-6.5h6.5a1.25 1.25 0 000-2.5z"/></symbol><symbol viewBox="0 0 30 30" id="icon-scroll" xmlns="http://www.w3.org/2000/svg"><path fill="currentColor" d="M21.89 16.86a1.24 1.24 0 00-1.76 0l-3.88 3.87V6.25a1.25 1.25 0 00-2.5 0v14.48l-3.88-3.87a1.24 1.24 0 00-1.76 1.76l6 6a1.25 1.25 0 00.24.16.86.86 0 00.16.1 1.23 1.23 0 001 0 .86.86 0 00.16-.1 1.25 1.25 0 00.24-.16l6-6a1.24 1.24 0 00-.02-1.76z"/></symbol><symbol viewBox="0 0 30 30" id="icon-twitter" xmlns="http://www.w3.org/2000/svg"><path fill="currentColor" d="M10.92 24a12.8 12.8 0 0012.84-12.93v-.59A9.14 9.14 0 0026 8.13a9 9 0 01-2.59.72 4.61 4.61 0 002-2.52 9.11 9.11 0 01-2.86 1.11 4.52 4.52 0 00-7.69 4.14 12.79 12.79 0 01-9.33-4.75 4.52 4.52 0 00-.61 2.28 4.57 4.57 0 002 3.79 4.59 4.59 0 01-2-.57v.06a4.53 4.53 0 003.58 4.45 4.54 4.54 0 01-1.18.16 4.63 4.63 0 01-.85-.08 4.52 4.52 0 004.21 3.16A9 9 0 015.08 22 9.51 9.51 0 014 22a12.71 12.71 0 006.92 2"/></symbol><symbol viewBox="0 0 30 30" id="icon-zoom" xmlns="http://www.w3.org/2000/svg"><path fill="currentColor" d="M16 7.5a6.5 6.5 0 11-3.88 11.71l-.76-.57-.57-.76A6.5 6.5 0 0116 7.5M16 5a9 9 0 00-7.21 14.37l-3.41 3.41a1.3 1.3 0 000 1.84 1.3 1.3 0 001.84 0l3.41-3.41A9 9 0 1016 5z"/></symbol></svg>